Coordinates
version=1
nRows=21
nColumns=12
inDegrees=yes

Units are S.I. units (second, meters, Newtons, ...)
Angles are in degrees

endheader
time	SC_y	SC_z	SC_x	AC_y	AC_z	AC_x	GH_y	GH_z	GH_yy	EL_x	PS_y
       0.0              -37.94          8.799          17.23          49.99         -13.37          19.17          51.97          20.78         -35.01          134.7          59.04
   0.04636              -37.94          8.799          17.24          49.99         -13.37          19.16          51.98          20.77         -35.02          134.7          59.06
   0.09272              -37.93          8.799          17.25          49.99         -13.37          19.16          51.98          20.76         -35.03          134.7          59.07
    0.1391              -37.93          8.799          17.26          49.99         -13.37          19.15          51.99          20.76         -35.04          134.7          59.09
    0.1854              -37.93          8.799          17.27          49.98         -13.36          19.15           52.0          20.75         -35.06          134.7           59.1
    0.2318              -37.92          8.799          17.28          49.98         -13.36          19.14          52.01          20.74         -35.07          134.7          59.12
    0.2782              -37.92          8.799           17.3          49.98         -13.36          19.13          52.01          20.74         -35.08          134.6          59.13
    0.3245              -37.91          8.799          17.31          49.98         -13.36          19.13          52.02          20.73          -35.1          134.6          59.15
    0.3709              -37.91          8.799          17.33          49.97         -13.36          19.12          52.03          20.72         -35.11          134.6          59.17
    0.4173               -37.9          8.799          17.34          49.97         -13.35          19.11          52.04          20.71         -35.13          134.6          59.19
    0.4636              -37.89          8.799          17.36          49.97         -13.35           19.1          52.05           20.7         -35.15          134.5          59.22
      0.51              -37.89          8.799          17.38          49.96         -13.35          19.09          52.07          20.69         -35.17          134.5          59.24
    0.5563              -37.88          8.799           17.4          49.96         -13.35          19.08          52.08          20.67         -35.19          134.5          59.27
    0.6027              -37.87          8.799          17.42          49.96         -13.34          19.07          52.09          20.66         -35.21          134.4           59.3
    0.6491              -37.86          8.799          17.45          49.95         -13.34          19.06          52.11          20.65         -35.24          134.4          59.33
    0.6954              -37.85          8.799          17.47          49.95         -13.34          19.04          52.12          20.63         -35.27          134.4          59.36
    0.7418              -37.84          8.799           17.5          49.94         -13.33          19.03          52.14          20.61          -35.3          134.3           59.4
    0.7882              -37.83          8.799          17.53          49.94         -13.33          19.01          52.16           20.6         -35.33          134.3          59.44
    0.8345              -37.82          8.799          17.57          49.93         -13.32           19.0          52.18          20.58         -35.36          134.2          59.49
    0.8809               -37.8          8.799           17.6          49.92         -13.32          18.98          52.21          20.55          -35.4          134.2          59.53
    0.9272              -37.79          8.799          17.64          49.92         -13.31          18.96          52.23          20.53         -35.44          134.1          59.59
